<svg xmlns="http://www.w3.org/2000/svg" xmlns:xlink="http://www.w3.org/1999/xlink" viewBox="0,0,256,256" width="50px" height="50px" fill-rule="nonzero"><g fill="#ffffff" fill-rule="nonzero" stroke="none" stroke-width="1" stroke-linecap="butt" stroke-linejoin="miter" stroke-miterlimit="10" stroke-dasharray="" stroke-dashoffset="0" font-family="none" font-weight="none" font-size="none" text-anchor="none" style="mix-blend-mode: normal"><g transform="scale(5.12,5.12)"><path d="M5,7c-2.75,0 -5,2.25 -5,5v26c0,2.75 2.25,5 5,5h40c2.75,0 5,-2.25 5,-5v-26c0,-2.75 -2.25,-5 -5,-5zM5,9h40c1.66797,0 3,1.33203 3,3v26c0,1.66797 -1.33203,3 -3,3h-40c-1.66797,0 -3,-1.33203 -3,-3v-26c0,-1.66797 1.33203,-3 3,-3zM8.5625,19.90625l-3.71875,8.5h2.21875l0.8125,-1.90625h4.1875l0.8125,1.90625h4.21875v-6.3125l2.8125,6.3125h1.90625l2.84375,-6.21875v6.21875h2.09375v-8.5h-3.34375l-2.5625,5.71875l-2.5625,-5.71875h-3.28125v8.1875l-3.65625,-8.1875zM29.5,19.90625v8.53125h8l2.5,-2.84375l2.46875,2.84375h2.65625l-3.75,-4.375l3.75,-4.15625h-2.65625l-2.40625,2.65625l-2.3125,-2.65625zM9.90625,21.6875l1.3125,3h-2.5625zM31.5625,21.71875l5.09375,0.03125l2.03125,2.3125l-2.28125,2.5625h-4.84375v-1.6875h4.625v-1.625h-4.625z"></path></g></g></svg>