<svg xmlns="http://www.w3.org/2000/svg" xmlns:xlink="http://www.w3.org/1999/xlink" viewBox="0,0,256,256" width="50px" height="50px" fill-rule="nonzero"><g fill="#ffffff" fill-rule="nonzero" stroke="none" stroke-width="1" stroke-linecap="butt" stroke-linejoin="miter" stroke-miterlimit="10" stroke-dasharray="" stroke-dashoffset="0" font-family="none" font-weight="none" font-size="none" text-anchor="none" style="mix-blend-mode: normal"><g transform="scale(5.12,5.12)"><path d="M5,7c-2.75,0 -5,2.25 -5,5v26c0,2.75 2.25,5 5,5h40c2.75,0 5,-2.25 5,-5v-26c0,-2.75 -2.25,-5 -5,-5zM5,9h40c1.66797,0 3,1.33203 3,3v26c0,1.66797 -1.33203,3 -3,3h-40c-1.66797,0 -3,-1.33203 -3,-3v-26c0,-1.66797 1.33203,-3 3,-3zM23,15c-5.51172,0 -10,4.48828 -10,10c0,5.51172 4.48828,10 10,10h3c5.52344,0 10,-4.47656 10,-10c0,-5.52344 -4.47656,-10 -10,-10zM23,17c4.42969,0 8,3.57031 8,8c0,4.42969 -3.57031,8 -8,8c-4.42969,0 -8,-3.57031 -8,-8c0,-4.42969 3.57031,-8 8,-8zM21.34375,20.3125c-1.94531,0.68359 -3.34375,2.50781 -3.34375,4.6875c0,2.17969 1.39844,4.00391 3.34375,4.6875zM24.65625,20.3125v9.375c1.94531,-0.68359 3.34375,-2.50781 3.34375,-4.6875c0,-2.17969 -1.39844,-4.00391 -3.34375,-4.6875z"></path></g></g></svg>