<svg xmlns="http://www.w3.org/2000/svg" xmlns:xlink="http://www.w3.org/1999/xlink" viewBox="0,0,256,256" width="64px" height="64px" fill-rule="nonzero"><g fill="none" fill-rule="nonzero" stroke="none" stroke-width="1" stroke-linecap="butt" stroke-linejoin="miter" stroke-miterlimit="10" stroke-dasharray="" stroke-dashoffset="0" font-family="none" font-weight="none" font-size="none" text-anchor="none" style="mix-blend-mode: normal"><g transform="scale(2,2)"><path d="M109,104h-90c-5.5,0 -10,-4.5 -10,-10v-60c0,-5.5 4.5,-10 10,-10h90c5.5,0 10,4.5 10,10v60c0,5.5 -4.5,10 -10,10z" fill-opacity="0.98824" fill="#111111"></path><path d="M47.4,82l2.6,-11c0.4,-1.5 2,-2.8 3.6,-2.8h2.1c9.1,0 16.3,-1.8 21.3,-5.6c5.1,-3.7 7.6,-8.6 7.6,-14.6c0,-2.7 -0.5,-4.9 -1.4,-6.7c-0.9,-1.8 -2.3,-3.2 -4.1,-4.3c-1.8,-1.1 -4,-1.9 -6.5,-2.4c-2.5,-0.5 -5.4,-0.7 -8.8,-0.7h-15.6c-1.6,0 -3.2,1.3 -3.6,2.8l-10.5,45.3c-0.4,1.5 0.7,2.8 2.3,2.8h7.5c1.5,0 3.2,-1.3 3.5,-2.8zM53.5,55.8l2.3,-9.6c0.4,-1.5 2,-2.8 3.6,-2.8h2.5c2.9,0 5,0.5 6.5,1.4c1.5,0.9 2.2,2.4 2.2,4.4c0,3 -1.1,5.3 -3.4,6.9c-2.3,1.6 -5.4,2.4 -9.4,2.4h-1.9c-1.7,0.1 -2.7,-1.2 -2.4,-2.7z" fill="#ffffff"></path><path d="M87.9,46c1,1.8 1.4,4 1.4,6.7c0,6 -2.5,10.9 -7.6,14.6c-5.1,3.7 -12.2,5.6 -21.3,5.6h-2.1c-1.6,0 -3.2,1.3 -3.6,2.8l-2.6,10.9c-0.4,1.5 -2,2.8 -3.6,2.8h-4.7l-0.4,1.8c-0.4,1.5 0.7,2.8 2.3,2.8h7.5c1.6,0 3.2,-1.3 3.6,-2.8l2.6,-10.9c0.4,-1.5 2,-2.8 3.6,-2.8h2c9.1,0 16.2,-1.8 21.3,-5.6c5.1,-3.7 7.6,-8.6 7.6,-14.6c0,-2.7 -0.5,-4.9 -1.4,-6.7c-0.9,-1.8 -2.3,-3.2 -4.1,-4.3c-0.1,-0.2 -0.3,-0.2 -0.5,-0.3z" fill="#ffffff"></path><path d="M109,107h-90c-7.2,0 -13,-5.8 -13,-13v-60c0,-7.2 5.8,-13 13,-13h90c7.2,0 13,5.8 13,13v60c0,7.2 -5.8,13 -13,13zM19,27c-3.9,0 -7,3.1 -7,7v60c0,3.9 3.1,7 7,7h90c3.9,0 7,-3.1 7,-7v-60c0,-3.9 -3.1,-7 -7,-7z" fill="#ffffff"></path><path d="M9,52c-0.2,0 -0.4,0 -0.6,-0.1c-0.2,0 -0.4,-0.1 -0.6,-0.2c-0.2,-0.1 -0.3,-0.2 -0.5,-0.3c-0.2,-0.1 -0.3,-0.2 -0.4,-0.4c-0.1,-0.1 -0.3,-0.3 -0.4,-0.5c-0.1,-0.2 -0.2,-0.3 -0.3,-0.5c-0.1,-0.2 -0.1,-0.4 -0.2,-0.6c0,0 0,-0.2 0,-0.4c0,-0.2 0,-0.4 0.1,-0.6c0,-0.2 0.1,-0.4 0.2,-0.6c0.1,-0.2 0.2,-0.3 0.3,-0.5c0.1,-0.2 0.2,-0.3 0.4,-0.4c0.2,-0.1 0.3,-0.3 0.4,-0.4c0.2,-0.1 0.3,-0.2 0.5,-0.3c0.2,-0.1 0.4,-0.1 0.6,-0.2c1,-0.2 2,0.1 2.7,0.8c0.1,0.1 0.3,0.3 0.4,0.4c0.1,0.2 0.2,0.3 0.3,0.5c0.1,0.2 0.1,0.4 0.2,0.6c0,0.2 0.1,0.4 0.1,0.6c0,0.2 0,0.4 -0.1,0.6c0,0.2 -0.1,0.4 -0.2,0.6c-0.1,0.2 -0.2,0.4 -0.3,0.5c-0.1,0.2 -0.2,0.3 -0.4,0.5c-0.6,0.6 -1.4,0.9 -2.2,0.9z" fill="#ffffff"></path></g></g></svg>